<svg width="24" height="24" viewBox="0 0 24 24" fill="none" xmlns="http://www.w3.org/2000/svg">
<path opacity="0.2" d="M21.75 15V17.25C21.75 17.4489 21.671 17.6397 21.5303 17.7803C21.3897 17.921 21.1989 18 21 18H3C2.80109 18 2.61032 17.921 2.46967 17.7803C2.32902 17.6397 2.25 17.4489 2.25 17.25V15.1059C2.25 9.71719 6.57656 5.26875 11.9653 5.25C13.2486 5.24544 14.5202 5.49426 15.7071 5.9822C16.8941 6.47013 17.973 7.18759 18.882 8.09342C19.7911 8.99924 20.5124 10.0756 21.0045 11.2608C21.4967 12.446 21.75 13.7167 21.75 15Z" fill="#F9FAFB"/>
<path d="M16.5 13.875C16.5 14.0975 16.434 14.315 16.3104 14.5C16.1868 14.685 16.0111 14.8292 15.8055 14.9144C15.6 14.9995 15.3738 15.0218 15.1555 14.9784C14.9373 14.935 14.7368 14.8278 14.5795 14.6705C14.4222 14.5132 14.315 14.3127 14.2716 14.0945C14.2282 13.8763 14.2505 13.6501 14.3356 13.4445C14.4208 13.2389 14.565 13.0632 14.75 12.9396C14.935 12.816 15.1525 12.75 15.375 12.75C15.6734 12.75 15.9595 12.8685 16.1705 13.0795C16.3815 13.2905 16.5 13.5766 16.5 13.875ZM8.625 12.75C8.4025 12.75 8.18499 12.816 7.99999 12.9396C7.81498 13.0632 7.67079 13.2389 7.58564 13.4445C7.50049 13.6501 7.47821 13.8763 7.52162 14.0945C7.56503 14.3127 7.67217 14.5132 7.82951 14.6705C7.98684 14.8278 8.1873 14.935 8.40553 14.9784C8.62376 15.0218 8.84996 14.9995 9.05552 14.9144C9.26109 14.8292 9.43679 14.685 9.56041 14.5C9.68402 14.315 9.75 14.0975 9.75 13.875C9.75 13.5766 9.63148 13.2905 9.4205 13.0795C9.20952 12.8685 8.92337 12.75 8.625 12.75ZM22.5 15V17.25C22.5 17.6478 22.342 18.0294 22.0607 18.3107C21.7794 18.592 21.3978 18.75 21 18.75H3C2.60218 18.75 2.22065 18.592 1.93934 18.3107C1.65804 18.0294 1.5 17.6478 1.5 17.25V15.1059C1.49867 13.6601 1.7923 12.2293 2.36294 10.9009C2.93357 9.57243 3.76922 8.37439 4.81875 7.38L2.46938 5.03063C2.32865 4.8899 2.24959 4.69903 2.24959 4.5C2.24959 4.30098 2.32865 4.11011 2.46938 3.96938C2.61011 3.82865 2.80098 3.74959 3 3.74959C3.19903 3.74959 3.3899 3.82865 3.53063 3.96938L5.98313 6.42188C7.74402 5.17426 9.84816 4.50277 12.0062 4.49975C14.1643 4.49672 16.2703 5.16232 18.0347 6.405L20.4722 3.9675C20.6129 3.82677 20.8038 3.74771 21.0028 3.74771C21.2018 3.74771 21.3927 3.82677 21.5334 3.9675C21.6742 4.10823 21.7532 4.29911 21.7532 4.49813C21.7532 4.69715 21.6742 4.88802 21.5334 5.02875L19.2019 7.35938C19.2722 7.42594 19.3425 7.49344 19.4119 7.56282C20.3938 8.53594 21.1725 9.69457 21.7027 10.9713C22.2328 12.2481 22.5039 13.6175 22.5 15ZM21 15C21 12.6131 20.0518 10.3239 18.364 8.63604C16.6761 6.94822 14.387 6 12 6H11.9681C7.02282 6.01688 3 10.1016 3 15.1059V17.25H21V15Z" fill="#F9FAFB"/>
</svg>
