<svg width="24" height="24" viewBox="0 0 24 24" fill="none" xmlns="http://www.w3.org/2000/svg">
<path d="M18.1716 12C18.8972 11.0133 19.5222 9.9565 20.0372 8.84531C21.0441 6.60656 21.0685 4.84594 20.1122 3.88781C19.156 2.92969 17.3935 2.95594 15.1547 3.96281C14.0435 4.47785 12.9867 5.10284 12 5.82844C11.0134 5.10284 9.95654 4.47785 8.84535 3.96281C6.6066 2.95594 4.84598 2.93156 3.88785 3.88781C2.92973 4.84406 2.95598 6.60656 3.96285 8.84531C4.47789 9.9565 5.10288 11.0133 5.82848 12C5.10288 12.9867 4.47789 14.0435 3.96285 15.1547C2.95598 17.3934 2.9316 19.1541 3.88785 20.1122C4.3566 20.5809 5.01285 20.8125 5.82191 20.8125C6.67504 20.8125 7.69691 20.5537 8.84535 20.0372C9.95654 19.5221 11.0134 18.8972 12 18.1716C12.9867 18.8972 14.0435 19.5221 15.1547 20.0372C16.3032 20.5537 17.325 20.8125 18.1782 20.8125C18.9882 20.8125 19.6454 20.5791 20.1122 20.1122C21.0713 19.1541 21.0441 17.3934 20.0372 15.1547C19.5222 14.0435 18.8972 12.9867 18.1716 12ZM19.3125 4.6875C20.1825 5.5575 19.5338 8.08969 17.4563 11.0625C16.7894 10.2281 16.0764 9.43152 15.3207 8.67656C14.5666 7.92061 13.771 7.20732 12.9375 6.54C15.9141 4.46344 18.4472 3.81375 19.3125 4.6875ZM16.7635 12C16.0727 12.8893 15.3272 13.7347 14.5313 14.5313C13.7349 15.3294 12.8895 16.0771 12 16.77C11.1106 16.0771 10.2652 15.3294 9.46879 14.5313C8.67088 13.7346 7.9232 12.8893 7.23004 12C8.621 10.2233 10.2227 8.62214 12 7.23188C12.8892 7.92445 13.7346 8.67151 14.5313 9.46875C15.3285 10.2652 16.0752 11.1106 16.7672 12H16.7635ZM4.68754 4.6875C4.93879 4.43531 5.32879 4.3125 5.82848 4.3125C7.05754 4.3125 8.95035 5.0625 11.0663 6.54469C10.23 7.20947 9.43183 7.92092 8.67566 8.67563C7.91993 9.43089 7.20694 10.2278 6.54004 11.0625C4.46254 8.08594 3.81379 5.55375 4.68754 4.6875ZM4.68754 19.3125C3.81754 18.4425 4.46723 15.9103 6.54379 12.9375C7.21072 13.7719 7.9237 14.5685 8.67941 15.3234C9.43344 16.0794 10.229 16.7927 11.0625 17.46C8.08598 19.5375 5.55379 20.1862 4.68754 19.3125ZM19.3125 19.3125C18.4425 20.1825 15.9104 19.5328 12.9375 17.4553C13.7722 16.789 14.5688 16.0763 15.3235 15.3206C16.0794 14.5666 16.7927 13.771 17.46 12.9375C19.5375 15.9141 20.1863 18.4462 19.3125 19.3125ZM12.9375 12C12.9375 12.1854 12.8826 12.3667 12.7795 12.5208C12.6765 12.675 12.5301 12.7952 12.3588 12.8661C12.1875 12.9371 11.999 12.9557 11.8171 12.9195C11.6353 12.8833 11.4682 12.794 11.3371 12.6629C11.206 12.5318 11.1167 12.3648 11.0806 12.1829C11.0444 12.001 11.0629 11.8125 11.1339 11.6412C11.2049 11.4699 11.325 11.3235 11.4792 11.2205C11.6334 11.1175 11.8146 11.0625 12 11.0625C12.2487 11.0625 12.4871 11.1613 12.663 11.3371C12.8388 11.5129 12.9375 11.7514 12.9375 12Z" fill="#C987D9"/>
</svg>
