<svg width="32" height="32" viewBox="0 0 32 32" fill="none" xmlns="http://www.w3.org/2000/svg">
<path d="M10.6325 5.40245L3.88875 15.9999L10.6387 26.5974C10.7454 26.7652 10.7811 26.9685 10.738 27.1626C10.6949 27.3566 10.5764 27.5256 10.4087 27.6324C10.241 27.7391 10.0377 27.7748 9.84364 27.7317C9.64956 27.6886 9.48055 27.5701 9.37375 27.4024L2.37375 16.4024C2.29723 16.2821 2.25659 16.1425 2.25659 15.9999C2.25659 15.8574 2.29723 15.7178 2.37375 15.5974L9.37375 4.59745C9.48315 4.43568 9.65133 4.32296 9.84254 4.28325C10.0338 4.24355 10.2329 4.28 10.3977 4.38485C10.5624 4.48969 10.6798 4.65467 10.7248 4.8447C10.7698 5.03473 10.739 5.23483 10.6387 5.40245H10.6325ZM29.6325 15.5974L22.6325 4.59745C22.5811 4.5114 22.5129 4.43654 22.432 4.37729C22.3511 4.31804 22.2592 4.27561 22.1617 4.2525C22.0641 4.22939 21.9629 4.22607 21.8641 4.24274C21.7652 4.25941 21.6707 4.29573 21.5861 4.34955C21.5015 4.40338 21.4286 4.47361 21.3716 4.5561C21.3147 4.63859 21.2748 4.73167 21.2544 4.82983C21.234 4.92799 21.2336 5.02923 21.253 5.12759C21.2724 5.22594 21.3113 5.3194 21.3675 5.40245L28.1112 15.9999L21.3675 26.5974C21.2608 26.7652 21.2251 26.9685 21.2683 27.1626C21.3114 27.3566 21.4298 27.5256 21.5975 27.6324C21.7653 27.7391 21.9685 27.7748 22.1626 27.7317C22.3567 27.6886 22.5257 27.5701 22.6325 27.4024L29.6325 16.4024C29.709 16.2821 29.7497 16.1425 29.7497 15.9999C29.7497 15.8574 29.709 15.7178 29.6325 15.5974Z" fill="#C987D9"/>
</svg>
