<svg width="32" height="32" viewBox="0 0 32 32" fill="none" xmlns="http://www.w3.org/2000/svg">
<path d="M30.7499 15.4999C30.7482 14.196 30.3698 12.9203 29.6602 11.8263C28.9505 10.7324 27.9399 9.86677 26.7499 9.33367V8.99992C26.7487 7.73113 26.3278 6.49838 25.5528 5.49373C24.7779 4.48909 23.6925 3.76896 22.4656 3.44555C21.2387 3.12214 19.9393 3.2136 18.7698 3.7057C17.6003 4.19779 16.6265 5.06287 15.9999 6.16617C15.3734 5.06287 14.3995 4.19779 13.23 3.7057C12.0605 3.2136 10.7611 3.12214 9.53425 3.44555C8.30737 3.76896 7.22191 4.48909 6.44698 5.49373C5.67205 6.49838 5.25117 7.73113 5.24991 8.99992V9.33367C4.05898 9.86498 3.04744 10.7299 2.3376 11.8238C1.62776 12.9178 1.25 14.194 1.25 15.498C1.25 16.8021 1.62776 18.0783 2.3376 19.1722C3.04744 20.2662 4.05898 21.1311 5.24991 21.6624V21.9999C5.25117 23.2687 5.67205 24.5015 6.44698 25.5061C7.22191 26.5108 8.30737 27.2309 9.53425 27.5543C10.7611 27.8777 12.0605 27.7862 13.23 27.2941C14.3995 26.8021 15.3734 25.937 15.9999 24.8337C16.6265 25.937 17.6003 26.8021 18.7698 27.2941C19.9393 27.7862 21.2387 27.8777 22.4656 27.5543C23.6925 27.2309 24.7779 26.5108 25.5528 25.5061C26.3278 24.5015 26.7487 23.2687 26.7499 21.9999V21.6624C27.9399 21.1304 28.9507 20.2655 29.6604 19.1721C30.3701 18.0787 30.7485 16.8034 30.7499 15.4999ZM10.9999 26.2499C9.89533 26.2505 8.83393 25.8209 8.0406 25.0523C7.24727 24.2837 6.78435 23.2365 6.74991 22.1324C7.16199 22.2106 7.58049 22.2499 7.99991 22.2499H8.99991C9.19883 22.2499 9.38959 22.1709 9.53024 22.0303C9.6709 21.8896 9.74991 21.6988 9.74991 21.4999C9.74991 21.301 9.6709 21.1102 9.53024 20.9696C9.38959 20.8289 9.19883 20.7499 8.99991 20.7499H7.99991C6.76071 20.7509 5.56109 20.3136 4.61333 19.5152C3.66557 18.7168 3.03076 17.6089 2.82124 16.3876C2.61172 15.1662 2.84098 13.9101 3.46847 12.8415C4.09596 11.7729 5.08122 10.9607 6.24991 10.5487C6.3962 10.4969 6.52285 10.4011 6.6124 10.2744C6.70195 10.1477 6.74999 9.99633 6.74991 9.84117V8.99992C6.74991 7.87275 7.19768 6.79174 7.99471 5.99472C8.79174 5.19769 9.87274 4.74992 10.9999 4.74992C12.1271 4.74992 13.2081 5.19769 14.0051 5.99472C14.8021 6.79174 15.2499 7.87275 15.2499 8.99992V18.1312C14.712 17.5384 14.0559 17.0648 13.324 16.7408C12.592 16.4168 11.8004 16.2496 10.9999 16.2499C10.801 16.2499 10.6102 16.3289 10.4696 16.4696C10.3289 16.6102 10.2499 16.801 10.2499 16.9999C10.2499 17.1988 10.3289 17.3896 10.4696 17.5303C10.6102 17.6709 10.801 17.7499 10.9999 17.7499C12.1271 17.7499 13.2081 18.1977 14.0051 18.9947C14.8021 19.7917 15.2499 20.8727 15.2499 21.9999C15.2499 23.1271 14.8021 24.2081 14.0051 25.0051C13.2081 25.8022 12.1271 26.2499 10.9999 26.2499ZM23.9999 20.7499H22.9999C22.801 20.7499 22.6102 20.8289 22.4696 20.9696C22.3289 21.1102 22.2499 21.301 22.2499 21.4999C22.2499 21.6988 22.3289 21.8896 22.4696 22.0303C22.6102 22.1709 22.801 22.2499 22.9999 22.2499H23.9999C24.4193 22.2499 24.8378 22.2106 25.2499 22.1324C25.2239 22.9669 24.9527 23.7751 24.4701 24.4564C23.9876 25.1377 23.3151 25.6617 22.5366 25.9632C21.7581 26.2646 20.908 26.3301 20.0925 26.1515C19.277 25.9728 18.5322 25.558 17.951 24.9586C17.3698 24.3593 16.978 23.6021 16.8245 22.7815C16.6709 21.9609 16.7625 21.1133 17.0877 20.3444C17.4129 19.5755 17.9573 18.9194 18.6531 18.458C19.3488 17.9966 20.1651 17.7503 20.9999 17.7499C21.1988 17.7499 21.3896 17.6709 21.5302 17.5303C21.6709 17.3896 21.7499 17.1988 21.7499 16.9999C21.7499 16.801 21.6709 16.6102 21.5302 16.4696C21.3896 16.3289 21.1988 16.2499 20.9999 16.2499C20.1995 16.2496 19.4078 16.4168 18.6758 16.7408C17.9439 17.0648 17.2879 17.5384 16.7499 18.1312V8.99992C16.7499 7.87275 17.1977 6.79174 17.9947 5.99472C18.7917 5.19769 19.8727 4.74992 20.9999 4.74992C22.1271 4.74992 23.2081 5.19769 24.0051 5.99472C24.8021 6.79174 25.2499 7.87275 25.2499 8.99992V9.84117C25.2498 9.99633 25.2979 10.1477 25.3874 10.2744C25.477 10.4011 25.6036 10.4969 25.7499 10.5487C26.9186 10.9607 27.9039 11.7729 28.5314 12.8415C29.1588 13.9101 29.3881 15.1662 29.1786 16.3876C28.9691 17.6089 28.3343 18.7168 27.3865 19.5152C26.4387 20.3136 25.2391 20.7509 23.9999 20.7499ZM25.7499 13.9999C25.7499 14.1988 25.6709 14.3896 25.5302 14.5302C25.3896 14.6709 25.1988 14.7499 24.9999 14.7499H24.4999C23.3727 14.7499 22.2917 14.3022 21.4947 13.5051C20.6977 12.7081 20.2499 11.6271 20.2499 10.4999V9.99992C20.2499 9.80101 20.3289 9.61024 20.4696 9.46959C20.6102 9.32894 20.801 9.24992 20.9999 9.24992C21.1988 9.24992 21.3896 9.32894 21.5302 9.46959C21.6709 9.61024 21.7499 9.80101 21.7499 9.99992V10.4999C21.7499 11.2293 22.0396 11.9287 22.5554 12.4445C23.0711 12.9602 23.7706 13.2499 24.4999 13.2499H24.9999C25.1988 13.2499 25.3896 13.3289 25.5302 13.4696C25.6709 13.6102 25.7499 13.801 25.7499 13.9999ZM7.49991 14.7499H6.99991C6.801 14.7499 6.61024 14.6709 6.46958 14.5302C6.32893 14.3896 6.24991 14.1988 6.24991 13.9999C6.24991 13.801 6.32893 13.6102 6.46958 13.4696C6.61024 13.3289 6.801 13.2499 6.99991 13.2499H7.49991C8.22926 13.2499 8.92873 12.9602 9.44446 12.4445C9.96018 11.9287 10.2499 11.2293 10.2499 10.4999V9.99992C10.2499 9.80101 10.3289 9.61024 10.4696 9.46959C10.6102 9.32894 10.801 9.24992 10.9999 9.24992C11.1988 9.24992 11.3896 9.32894 11.5302 9.46959C11.6709 9.61024 11.7499 9.80101 11.7499 9.99992V10.4999C11.7499 11.6271 11.3021 12.7081 10.5051 13.5051C9.70809 14.3022 8.62708 14.7499 7.49991 14.7499Z" fill="#AD4FC4"/>
</svg>
