<svg width="24" height="24" viewBox="0 0 24 24" fill="none" xmlns="http://www.w3.org/2000/svg">
<path d="M21.556 17.4919C22.0788 16.435 22.3383 15.2674 22.3124 14.0886C22.2864 12.9097 21.9758 11.7546 21.407 10.7218C20.8382 9.68895 20.028 8.80898 19.0456 8.1569C18.0632 7.50481 16.9377 7.09997 15.765 6.97688C15.3926 6.06838 14.841 5.2442 14.1431 4.55348C13.4453 3.86276 12.6155 3.31965 11.7032 2.95655C10.7909 2.59345 9.81489 2.41779 8.83326 2.44005C7.85164 2.4623 6.88455 2.68202 5.98967 3.0861C5.0948 3.49018 4.29046 4.07033 3.62464 4.79197C2.95882 5.51361 2.44514 6.36195 2.11426 7.28639C1.78337 8.21084 1.64205 9.19245 1.69871 10.1727C1.75538 11.1529 2.00888 12.1117 2.44408 12.9919L1.7419 15.375C1.67418 15.6018 1.66906 15.8427 1.72708 16.0722C1.7851 16.3017 1.90409 16.5112 2.07146 16.6786C2.23884 16.8459 2.44836 16.9649 2.67784 17.0229C2.90732 17.081 3.14821 17.0758 3.37502 17.0081L5.7619 16.3059C6.53777 16.6889 7.37545 16.9311 8.23596 17.0213C8.61622 17.9504 9.18372 18.7912 9.90311 19.4914C10.6225 20.1917 11.4784 20.7363 12.4174 21.0913C13.3564 21.4464 14.3585 21.6043 15.3612 21.5552C16.3639 21.5061 17.3458 21.251 18.2456 20.8059L20.625 21.5081C20.8518 21.5758 21.0927 21.581 21.3222 21.5229C21.5517 21.4649 21.7612 21.3459 21.9286 21.1786C22.096 21.0112 22.2149 20.8017 22.273 20.5722C22.331 20.3427 22.3259 20.1018 22.2581 19.875L21.556 17.4919ZM5.81252 15.1406C5.75891 15.1406 5.70557 15.1482 5.65408 15.1631L3.05065 15.9291C3.01838 15.9385 2.98417 15.939 2.95161 15.9307C2.91905 15.9224 2.88933 15.9054 2.86556 15.8816C2.8418 15.8579 2.82486 15.8282 2.81651 15.7956C2.80817 15.763 2.80874 15.7288 2.81815 15.6966L3.58408 13.0931C3.62527 12.9512 3.60947 12.7989 3.54002 12.6684C2.84035 11.36 2.63418 9.84362 2.95911 8.39583C3.28403 6.94804 4.11841 5.66523 5.31014 4.78123C6.50186 3.89724 7.97158 3.47093 9.45136 3.58002C10.9311 3.68912 12.3225 4.32635 13.3717 5.37555C14.4209 6.42476 15.0581 7.81607 15.1672 9.29585C15.2763 10.7756 14.85 12.2453 13.966 13.4371C13.082 14.6288 11.7992 15.4632 10.3514 15.7881C8.90359 16.113 7.38725 15.9069 6.07877 15.2072C5.99688 15.1634 5.90541 15.1405 5.81252 15.1406ZM20.4103 17.5931L21.1763 20.1966C21.1857 20.2288 21.1862 20.263 21.1779 20.2956C21.1696 20.3282 21.1526 20.3579 21.1289 20.3816C21.1051 20.4054 21.0754 20.4224 21.0428 20.4307C21.0102 20.439 20.976 20.4385 20.9438 20.4291L18.3403 19.6631C18.1984 19.622 18.0461 19.6378 17.9156 19.7072C17.1888 20.0957 16.3916 20.3351 15.571 20.4114C14.7503 20.4876 13.9227 20.3991 13.1367 20.1511C12.3508 19.903 11.6223 19.5005 10.994 18.9671C10.3657 18.4336 9.85035 17.78 9.47815 17.0447C10.53 16.9762 11.5545 16.681 12.4814 16.1792C13.4084 15.6774 14.2157 14.981 14.8481 14.1377C15.4805 13.2944 15.9228 12.3243 16.1449 11.2939C16.3669 10.2635 16.3633 9.19731 16.1344 8.16844C17.0901 8.34714 17.9903 8.74857 18.7619 9.34017C19.5336 9.93177 20.1549 10.6969 20.5756 11.5735C20.9963 12.4501 21.2044 13.4135 21.1832 14.3856C21.162 15.3576 20.912 16.311 20.4535 17.1684C20.3853 17.2994 20.3708 17.4517 20.4131 17.5931H20.4103Z" fill="#C987D9"/>
</svg>
