<svg width="32" height="32" viewBox="0 0 32 32" fill="none" xmlns="http://www.w3.org/2000/svg">
<path fill-rule="evenodd" clip-rule="evenodd" d="M15.5119 2C7.55631 2 1.125 8.47393 1.125 16.4831C1.125 22.8852 5.24576 28.3045 10.9624 30.2225C11.6771 30.3667 11.9389 29.9109 11.9389 29.5275C11.9389 29.1917 11.9153 28.0408 11.9153 26.8417C7.91323 27.705 7.07983 25.1152 7.07983 25.1152C6.43667 23.4367 5.48371 23.0053 5.48371 23.0053C4.17383 22.118 5.57912 22.118 5.57912 22.118C7.03213 22.214 7.79455 23.6047 7.79455 23.6047C9.08058 25.8105 11.1529 25.1873 11.9866 24.8035C12.1056 23.8684 12.4869 23.221 12.8918 22.8614C9.69989 22.5256 6.34155 21.2788 6.34155 15.7156C6.34155 14.133 6.91286 12.8382 7.81811 11.8313C7.67529 11.4717 7.17495 9.98471 7.96123 7.99457C7.96123 7.99457 9.17599 7.61084 11.915 9.48122C13.0877 9.16419 14.2971 9.00291 15.5119 9.00156C16.7267 9.00156 17.965 9.16959 19.1085 9.48122C21.8478 7.61084 23.0626 7.99457 23.0626 7.99457C23.8488 9.98471 23.3482 11.4717 23.2054 11.8313C24.1345 12.8382 24.6822 14.133 24.6822 15.7156C24.6822 21.2788 21.3239 22.5015 18.1081 22.8614C18.6323 23.3169 19.0846 24.18 19.0846 25.5469C19.0846 27.489 19.0611 29.0478 19.0611 29.5272C19.0611 29.9109 19.3232 30.3667 20.0376 30.2228C25.7542 28.3042 29.8749 22.8852 29.8749 16.4831C29.8985 8.47393 23.4436 2 15.5119 2Z" fill="#C987D9"/>
</svg>
