<svg width="32" height="32" viewBox="0 0 32 32" fill="none" xmlns="http://www.w3.org/2000/svg">
<path d="M24.6114 16.3675L18.0501 13.95L15.6326 7.38875C15.5095 7.05492 15.287 6.76687 14.9951 6.56341C14.7032 6.35995 14.3559 6.25087 14.0001 6.25087C13.6443 6.25087 13.297 6.35995 13.0051 6.56341C12.7132 6.76687 12.4907 7.05492 12.3676 7.38875L9.95011 13.95L3.38886 16.3675C3.05503 16.4906 2.76698 16.7131 2.56352 17.005C2.36006 17.2969 2.25098 17.6442 2.25098 18C2.25098 18.3558 2.36006 18.7031 2.56352 18.995C2.76698 19.2869 3.05503 19.5094 3.38886 19.6325L9.95011 22.05L12.3676 28.6113C12.4907 28.9451 12.7132 29.2331 13.0051 29.4366C13.297 29.6401 13.6443 29.7491 14.0001 29.7491C14.3559 29.7491 14.7032 29.6401 14.9951 29.4366C15.287 29.2331 15.5095 28.9451 15.6326 28.6113L18.0501 22.05L24.6114 19.6325C24.9452 19.5094 25.2332 19.2869 25.4367 18.995C25.6402 18.7031 25.7492 18.3558 25.7492 18C25.7492 17.6442 25.6402 17.2969 25.4367 17.005C25.2332 16.7131 24.9452 16.4906 24.6114 16.3675ZM24.0926 18.225L17.2076 20.7625C17.1056 20.8 17.013 20.8592 16.9362 20.9361C16.8593 21.0129 16.8001 21.1055 16.7626 21.2075L14.2251 28.0925C14.2081 28.1384 14.1774 28.178 14.1371 28.206C14.0969 28.234 14.0491 28.249 14.0001 28.249C13.9511 28.249 13.9033 28.234 13.8631 28.206C13.8229 28.178 13.7922 28.1384 13.7751 28.0925L11.2376 21.2075C11.2001 21.1055 11.1409 21.0129 11.064 20.9361C10.9872 20.8592 10.8946 20.8 10.7926 20.7625L3.90761 18.225C3.86168 18.208 3.82207 18.1773 3.79409 18.137C3.76612 18.0968 3.75113 18.049 3.75113 18C3.75113 17.951 3.76612 17.9032 3.79409 17.863C3.82207 17.8227 3.86168 17.7921 3.90761 17.775L10.7926 15.2375C10.8946 15.2 10.9872 15.1408 11.064 15.0639C11.1409 14.9871 11.2001 14.8945 11.2376 14.7925L13.7751 7.9075C13.7922 7.86157 13.8229 7.82196 13.8631 7.79398C13.9033 7.76601 13.9511 7.75102 14.0001 7.75102C14.0491 7.75102 14.0969 7.76601 14.1371 7.79398C14.1774 7.82196 14.2081 7.86157 14.2251 7.9075L16.7626 14.7925C16.8001 14.8945 16.8593 14.9871 16.9362 15.0639C17.013 15.1408 17.1056 15.2 17.2076 15.2375L24.0926 17.775C24.1385 17.7921 24.1782 17.8227 24.2061 17.863C24.2341 17.9032 24.2491 17.951 24.2491 18C24.2491 18.049 24.2341 18.0968 24.2061 18.137C24.1782 18.1773 24.1385 18.208 24.0926 18.225ZM18.2501 5C18.2501 4.80109 18.3291 4.61032 18.4698 4.46967C18.6104 4.32902 18.8012 4.25 19.0001 4.25H21.2501V2C21.2501 1.80109 21.3291 1.61032 21.4698 1.46967C21.6104 1.32902 21.8012 1.25 22.0001 1.25C22.199 1.25 22.3898 1.32902 22.5304 1.46967C22.6711 1.61032 22.7501 1.80109 22.7501 2V4.25H25.0001C25.199 4.25 25.3898 4.32902 25.5304 4.46967C25.6711 4.61032 25.7501 4.80109 25.7501 5C25.7501 5.19891 25.6711 5.38968 25.5304 5.53033C25.3898 5.67098 25.199 5.75 25.0001 5.75H22.7501V8C22.7501 8.19891 22.6711 8.38968 22.5304 8.53033C22.3898 8.67098 22.199 8.75 22.0001 8.75C21.8012 8.75 21.6104 8.67098 21.4698 8.53033C21.3291 8.38968 21.2501 8.19891 21.2501 8V5.75H19.0001C18.8012 5.75 18.6104 5.67098 18.4698 5.53033C18.3291 5.38968 18.2501 5.19891 18.2501 5ZM30.7501 11C30.7501 11.1989 30.6711 11.3897 30.5304 11.5303C30.3898 11.671 30.199 11.75 30.0001 11.75H28.7501V13C28.7501 13.1989 28.6711 13.3897 28.5304 13.5303C28.3898 13.671 28.199 13.75 28.0001 13.75C27.8012 13.75 27.6104 13.671 27.4698 13.5303C27.3291 13.3897 27.2501 13.1989 27.2501 13V11.75H26.0001C25.8012 11.75 25.6104 11.671 25.4698 11.5303C25.3291 11.3897 25.2501 11.1989 25.2501 11C25.2501 10.8011 25.3291 10.6103 25.4698 10.4697C25.6104 10.329 25.8012 10.25 26.0001 10.25H27.2501V9C27.2501 8.80109 27.3291 8.61032 27.4698 8.46967C27.6104 8.32902 27.8012 8.25 28.0001 8.25C28.199 8.25 28.3898 8.32902 28.5304 8.46967C28.6711 8.61032 28.7501 8.80109 28.7501 9V10.25H30.0001C30.199 10.25 30.3898 10.329 30.5304 10.4697C30.6711 10.6103 30.7501 10.8011 30.7501 11Z" fill="#C987D9"/>
</svg>
