<svg width="128" height="128" viewBox="0 0 128 128" fill="none" xmlns="http://www.w3.org/2000/svg">
<path fill-rule="evenodd" clip-rule="evenodd" d="M56.7314 123.045C51.0903 123.045 45.5863 121.874 40.3657 119.561C30.2537 115.081 22.4549 106.853 18.4046 96.3749C14.3543 85.9063 14.528 74.4503 18.8983 64.1189C21.4034 58.2035 25.2434 52.8915 30.0343 48.7315C29.7234 42.3132 30.8754 35.8126 33.3806 29.8972C39.9177 14.4458 54.8937 4.45262 71.5337 4.45262H72.9052C78.9029 4.45262 102.619 4.44348 104.549 4.44348C107.511 4.44348 109.687 6.30862 110.117 6.71091C110.537 7.08577 112.512 9.04234 112.512 12.6355C112.512 14.9212 112.494 37.5955 112.485 44.4892V46.7841C112.466 52.5075 111.323 58.0938 109.083 63.3875C106.578 69.3029 102.738 74.6149 97.9474 78.7749C98.2583 85.1932 97.1063 91.6938 94.6012 97.6092C88.0732 113.051 73.2069 123.045 56.7314 123.045ZM32.2377 60.3429C30.4 62.6469 28.8823 65.2069 27.7029 67.9772C24.3383 75.9315 24.2012 84.7452 27.3189 92.8001C30.4366 100.846 36.4252 107.173 44.1874 110.61C48.192 112.384 52.416 113.28 56.7314 113.28C69.3669 113.28 80.7772 105.609 85.7966 93.7326C86.976 90.944 87.7623 88.0458 88.1372 85.0835C82.8252 87.5246 77.0012 88.8138 71.1954 88.8138C65.5543 88.8138 60.0503 87.6435 54.8297 85.3303C48.7772 82.6515 43.392 78.4823 39.2503 73.2892C36.2332 69.4766 33.8194 65.0332 32.2377 60.3429ZM40.2286 53.2023C42.3223 63.5429 49.1703 72.1738 58.6606 76.3795C62.6652 78.1532 66.88 79.0492 71.2046 79.0492C77.056 79.0492 82.7612 77.4035 87.7532 74.2766C85.6594 63.9361 78.8114 55.3052 69.3212 51.0995C65.3166 49.3258 61.1017 48.4298 56.7772 48.4298C50.9257 48.4298 45.2206 50.0846 40.2286 53.2023ZM56.7772 38.6743C62.4183 38.6743 67.9223 39.8446 73.1429 42.1578C79.1954 44.8366 84.5806 48.9966 88.7223 54.1989C91.7577 58.0115 94.1714 62.4549 95.7532 67.1543C97.5909 64.8503 99.1086 62.2903 100.288 59.5201C102.226 54.9303 102.226 49.6823 102.226 45.056C102.226 43.9589 102.226 42.7795 102.226 41.5635V41.4172C102.226 38.8298 102.226 35.9041 102.226 33.1795C102.217 29.7875 102.217 26.3406 102.226 23.5703V23.3326C102.226 22.1806 102.226 21.1292 102.226 20.1966V14.7841H71.9177C71.6069 14.7841 71.4332 14.7841 71.3326 14.7841C71.3052 14.7841 71.2686 14.7841 71.2412 14.7841H71.2229C58.6423 14.7841 46.976 22.4092 42.176 33.7463C40.9966 36.5349 40.2103 39.4332 39.8354 42.3955C45.1474 39.9543 50.9714 38.6743 56.7772 38.6743Z" fill="white"/>
<path fill-rule="evenodd" clip-rule="evenodd" d="M54.8857 65.4869C57.6498 65.4869 59.8857 63.2451 59.8857 60.4869C59.8857 57.7287 57.6498 55.4869 54.8857 55.4869C52.1217 55.4869 49.8857 57.7287 49.8857 60.4869C49.8857 63.2451 52.1217 65.4869 54.8857 65.4869Z" fill="white"/>
<path fill-rule="evenodd" clip-rule="evenodd" d="M77.0515 65.6332C77.0515 69.4964 73.9234 72.6332 70.0515 72.6332C66.1915 72.6332 63.0515 69.4964 63.0515 65.6332C63.0515 61.7699 66.1797 58.6332 70.0515 58.6332C73.9115 58.6447 77.0515 61.7699 77.0515 65.6332Z" fill="white"/>
</svg>
