<svg width="24" height="24" viewBox="0 0 24 24" fill="none" xmlns="http://www.w3.org/2000/svg">
<path opacity="0.2" d="M12 13.5H19.5V20.25L12 18.8859V13.5ZM3 17.25L9 18.3412V13.5H3V17.25ZM12 5.11406V10.5H19.5V3.75L12 5.11406ZM3 10.5H9V5.65875L3 6.75V10.5Z" fill="#F9FAFB"/>
<path d="M19.5 12.75H12C11.8011 12.75 11.6103 12.829 11.4697 12.9697C11.329 13.1103 11.25 13.3011 11.25 13.5V18.8859C11.2498 19.0617 11.3114 19.232 11.424 19.367C11.5365 19.5021 11.693 19.5933 11.8659 19.6247L19.3659 20.9878C19.4101 20.9961 19.455 21.0002 19.5 21C19.6989 21 19.8897 20.921 20.0303 20.7803C20.171 20.6397 20.25 20.4489 20.25 20.25V13.5C20.25 13.3011 20.171 13.1103 20.0303 12.9697C19.8897 12.829 19.6989 12.75 19.5 12.75ZM18.75 19.3509L12.75 18.2606V14.25H18.75V19.3509ZM9 12.75H3C2.80109 12.75 2.61032 12.829 2.46967 12.9697C2.32902 13.1103 2.25 13.3011 2.25 13.5V17.25C2.25003 17.4256 2.31169 17.5957 2.42425 17.7305C2.53681 17.8654 2.69313 17.9564 2.86594 17.9878L8.86594 19.0791C8.9102 19.0869 8.95505 19.091 9 19.0912C9.19891 19.0912 9.38968 19.0122 9.53033 18.8716C9.67098 18.7309 9.75 18.5402 9.75 18.3412V13.5C9.75 13.3011 9.67098 13.1103 9.53033 12.9697C9.38968 12.829 9.19891 12.75 9 12.75ZM8.25 17.4422L3.75 16.6237V14.25H8.25V17.4422ZM19.9809 3.17437C19.8966 3.10392 19.7978 3.05288 19.6915 3.02486C19.5852 2.99683 19.4741 2.9925 19.3659 3.01218L11.8659 4.37624C11.6931 4.40764 11.5368 4.49869 11.4243 4.63352C11.3117 4.76836 11.25 4.93842 11.25 5.11406V10.5C11.25 10.6989 11.329 10.8897 11.4697 11.0303C11.6103 11.171 11.8011 11.25 12 11.25H19.5C19.6989 11.25 19.8897 11.171 20.0303 11.0303C20.171 10.8897 20.25 10.6989 20.25 10.5V3.74999C20.25 3.6402 20.2259 3.53174 20.1794 3.43228C20.1329 3.33282 20.0652 3.24477 19.9809 3.17437ZM18.75 9.74999H12.75V5.73937L18.75 4.64906V9.74999ZM9.48094 5.08312C9.39657 5.01267 9.29776 4.96163 9.19148 4.93361C9.08521 4.90558 8.97407 4.90125 8.86594 4.92093L2.86594 6.01218C2.69313 6.04358 2.53681 6.13463 2.42425 6.26946C2.31169 6.40429 2.25003 6.57435 2.25 6.74999V10.5C2.25 10.6989 2.32902 10.8897 2.46967 11.0303C2.61032 11.171 2.80109 11.25 3 11.25H9C9.19891 11.25 9.38968 11.171 9.53033 11.0303C9.67098 10.8897 9.75 10.6989 9.75 10.5V5.65874C9.75002 5.54895 9.72593 5.44049 9.67944 5.34103C9.63295 5.24157 9.56518 5.15352 9.48094 5.08312ZM8.25 9.74999H3.75V7.37624L8.25 6.56249V9.74999Z" fill="#F9FAFB"/>
</svg>
